<svg id="Layer_1" data-name="Layer 1" xmlns="http://www.w3.org/2000/svg" viewBox="0 0 523.57 521.98"><defs><style>.cls-1{fill:#231f20;}.cls-2{fill:none;stroke:#fff;stroke-linecap:round;stroke-linejoin:round;stroke-width:50px;}</style></defs><polygon class="cls-1" points="523.57 260.07 521.6 274.67 518.34 289 518.72 303.76 515.12 317.94 511.2 331.99 506.62 345.81 500.1 358.86 497.1 373.49 490.37 386.51 482.99 399.19 474.38 411.05 466.51 423.5 456.35 434.12 445.67 444.16 433.74 452.72 423.43 463.03 412.3 472.49 399.43 479.47 386.95 486.92 373.92 493.36 361.31 500.84 347.84 506.58 333.75 510.58 319.63 514.37 305.4 517.98 290.61 517.69 276.29 521.98 261.58 521.76 247.14 517.09 232.23 520.52 217.87 517.32 203.19 515.86 189.35 510.75 174.9 507.78 161.58 501.48 149.21 493.42 136.78 485.89 121.86 482.44 110.19 473.43 99.01 463.92 87.78 454.55 76.02 445.62 69.5 431.71 58.34 422.14 50.97 409.49 40.61 398.91 34.15 385.75 26.35 373.34 21.6 359.47 14.94 346.37 11.49 332.12 8.98 317.73 5.87 303.52 5.59 288.92 0 274.76 3.72 260.07 0.53 245.41 2.71 230.9 4.08 216.31 8.03 202.19 13.92 188.71 14.56 173.63 23.22 161.34 25.79 146.52 32.99 133.73 39.81 120.72 50.02 109.96 56.54 96.55 66.79 85.99 78.54 77.02 89.94 68 99.25 56.5 110.16 46.65 123.08 39.63 136.3 33.37 148.54 25.32 161.98 19.59 175.31 13.52 189.29 9.13 203.17 4.15 217.98 3.47 232.35 0.71 247.14 2.99 261.58 1.8 276.19 0 290.71 1.58 305.22 3.25 319.44 6.57 333.95 8.86 346.9 16.24 361.58 18.65 373.8 27.03 387.58 32.08 401.15 37.94 410.78 49.78 425.22 54.87 434.37 66.72 444.94 76.71 455.06 87.17 463.21 99.28 473.63 109.62 481.64 121.8 487.4 135.27 497 146.7 499.66 161.46 506.16 174.49 512.9 187.66 513.84 202.49 517.33 216.61 521.53 230.78 522.94 245.39 523.57 260.07"/><polyline class="cls-2" points="217.57 117.77 218.42 117.93 218.23 119.15 218.09 120.3 219.18 120.22 219.99 120.42 221.3 120.11 220.06 122.38 221.7 121.75 221.33 123.14 223.23 122.24 222.49 124.01 224.3 123.2 224.39 124.13 223.77 125.78 225.61 124.94 225.61 125.96 225.88 126.7 227.49 126.09 226.22 128.4 226.78 128.85 227.45 129.2 229.31 128.34 229.05 129.61 230.58 129.08 229.81 130.88 230.19 131.51 230.78 131.94 232.14 131.58 232.39 132.34 233.47 132.26 232.63 134.14 234.26 133.5 234.9 133.87 234.89 134.9 234.64 136.17 235.15 136.68 236.62 136.21 236.86 136.97 237.78 137.06 237.21 138.67 237.74 139.14 238.14 139.75 238.78 140.12 238.95 140.98 240.53 140.39 241.31 140.63 241.89 141.06 242.63 141.33 242.72 142.26 243.3 142.69 242.56 144.47 243.49 144.54 244.71 144.33 245.37 144.69 245.16 145.93 245.49 146.62 247.29 145.81 247.67 146.45 247.71 147.43 247.18 149 249.24 147.93 249.02 149.17 249.82 149.38 250.72 149.49 251.47 149.74 250.8 151.45 250.72 152.55 251.75 152.53 253.37 151.91 253.68 152.62 253.63 153.68 254.84 153.48 253.63 155.73 254.15 156.23 255.4 155.98 256.54 155.84 257.44 155.96 257.42 157 257.54 157.91 258.69 157.76 258.44 159.04 259.89 158.6 259.68 159.83 259.82 160.71 260.95 160.58 261.44 161.11 261.58 161.98 261.5 163.08 263.19 162.38 263.02 163.57 264.66 162.93 263.44 165.18 264.95 164.66 265.75 164.87 265.16 166.48 266.12 166.52 266.27 167.39 266.75 167.91 268.01 167.66 268.81 167.86 268.74 168.95 270.25 168.43 269.45 170.26 269.69 171.03 269.95 171.79 271.08 171.67 271.48 172.29 272.07 172.71 272.69 173.1 272.91 173.91 274.13 173.71 275.32 173.52 275.38 174.49 274.65 176.26 276.74 175.16 276.45 176.47 277.39 176.54 277.17 177.8 278.22 177.75 279.12 177.86 279.78 178.21 279.78 179.24 279.38 180.67 279.9 181.16 280.99 181.08 280.73 182.37 281.38 182.74 282.53 182.6 284.06 182.09 282.96 184.23 283.36 184.85 284.11 185.12 284.93 185.31 285.58 185.68 285.34 186.95 285.87 187.43 286.47 187.85 288.31 187.02 287.46 188.91 288.59 188.8 289.7 188.7 289.13 190.3 289.56 190.9 291.1 190.35 290.71 191.78 292.53 190.97 292.19 192.34 292.13 193.42 293.08 193.48 294.72 192.85 295.18 193.4 295.87 193.73 296.1 194.53 296.95 194.71 296.79 195.9 297.46 196.25 298.49 196.23 297.41 198.37 299.31 197.47 298.84 198.98 300.17 198.66 300.92 198.94 300.62 200.28 301.14 200.78 301.61 201.34 302.85 201.13 303.32 201.7 304.52 202.85 302.34 202.64 302.16 203.63 301.39 203.79 300.45 203.7 299.83 204.07 299.09 204.27 299.72 206.43 298.43 205.84 298 206.49 296.74 205.93 297.13 207.75 296.01 207.4 295.98 208.62 294.97 208.42 294.05 208.35 294.17 209.78 292.87 209.17 292.77 210.3 291.8 210.15 290.76 209.91 290.81 211.24 290.94 212.69 290.2 212.89 289.94 213.77 288.74 213.31 288.5 214.22 286.91 213.19 286.34 213.63 285.96 214.34 286.19 215.94 285.09 215.62 284.62 216.21 284.56 217.39 283.37 216.94 282.7 217.24 281.34 216.53 280.81 217.03 280.11 217.29 280.74 219.46 279.5 218.93 279.68 220.45 278.8 220.42 277.22 219.41 277.25 220.7 277.45 222.24 276.02 221.44 276.18 222.92 275.09 222.6 274.02 222.32 273.29 222.51 273.62 224.24 272.49 223.86 272.82 225.59 271.06 224.32 270.74 225.11 270.44 225.95 270.07 226.67 268.4 225.53 268.23 226.54 267.19 226.31 267.33 227.77 266.77 228.23 266.09 228.52 265.29 228.64 265.46 230.14 264.43 229.93 263.27 229.51 262.6 229.81 262.43 230.83 261.26 230.41 262.04 232.79 261.57 233.37 260.3 232.8 260.32 234.09 258.6 232.88 258.15 233.49 258.24 234.88 256.82 234.1 257.15 235.86 256.01 235.48 254.86 235.09 254.42 235.72 254.9 237.68 254.35 238.15 252.97 237.43 252.34 237.8 251.41 237.71 251.81 239.56 250.86 239.46 249.76 239.15 249.2 239.61 248.76 240.24 247.6 239.85 248.29 242.1 247.36 242.04 246.87 242.6 246.37 243.14 245.56 243.25 244.99 243.69 244.18 243.79 244.13 244.99 242.75 244.25 241.82 244.19 242.6 246.57 240.71 245.13 241.2 247.1 239.94 246.56 240.07 248.03 239.14 247.95 238.27 247.98 237.07 247.53 237.35 249.2 236.24 248.88 236.21 250.12 234.85 249.42 234.71 250.51 233.88 250.59 233.63 251.53 233.1 251.73 233.61 251.94 234.7 251.76 234.99 252.53 234.36 254.36 235.73 253.85 236.88 253.62 237.55 253.93 236.51 256.23 238.01 255.58 239.12 255.39 239.14 256.46 239.6 257.02 239.11 258.69 241.16 257.4 240.57 259.19 241.57 259.11 242.35 259.31 242.92 259.74 242.47 261.37 243.72 261.01 245.15 260.44 244.07 262.8 244.55 263.34 245.06 263.86 247.25 262.41 247.64 263.05 247.36 264.48 248.82 263.89 248.09 265.84 248.79 266.13 249.42 266.5 249.63 267.36 250.79 267.12 251.86 266.97 252.07 267.83 252.34 268.62 253.82 268 254.21 268.64 253.84 270.18 254.01 271.07 255.48 270.46 256.53 270.34 255.86 272.23 256.86 272.16 257.83 272.13 258.61 272.32 258.25 273.84 258.26 274.92 259.77 274.26 259.47 275.71 259.86 276.36 261.64 275.38 261.4 276.76 261.6 277.63 263.45 276.58 263.73 277.36 263.63 278.57 264.84 278.26 265.3 278.83 265.43 279.77 266.61 279.5 266.33 280.93 266.64 281.68 267.66 281.58 267.85 282.46 268.79 282.47 269.15 283.16 269.53 283.82 270.7 283.56 270.82 284.52 271.56 284.78 272.9 284.32 272.75 285.6 273.13 286.25 273.99 286.36 273.71 287.79 274.54 287.93 276.15 287.15 275.74 288.74 275.51 290.11 276.06 290.57 276.99 290.59 278.56 289.86 277.86 291.77 279.34 291.15 280.13 291.33 279.29 293.41 280.53 293.08 281.34 293.24 281.7 293.92 282.54 294.04 282.13 295.63 282.65 296.12 284.17 295.46 283.75 297.05 284.53 297.25 285.3 297.46 286.66 296.99 286.87 297.85 287.15 298.62 288.44 298.23 289.16 298.49 288.3 300.59 289.92 299.81 290.28 300.48 290.89 300.87 291.45 301.32 290.88 303.08 292.38 302.44 293.55 302.17 292.75 304.19 293.52 304.4 293.89 305.06 294.98 304.88 296.04 304.75 296.79 304.98 296.24 306.71 297.2 306.68 298.08 306.76 297.71 308.29 298.36 308.63 299.43 308.48 300.3 308.57 300.05 309.96 301.03 309.92 301.75 310.19 302.4 310.54 303.16 310.76 302.43 312.73 303.31 312.81 303.23 314.01 305.41 312.58 305.08 314.07 305.57 314.6 305.55 315.73 307.33 314.76 307.35 315.84 308.53 315.57 309.15 315.95 308.2 318.17 308.72 318.66 310.14 318.11 311.16 318.03 310.72 319.65 311.21 320.19 311.7 320.73 312.92 320.42 312.81 321.67 314.85 320.39 313.79 322.74 315.14 322.27 315.92 322.47 315.45 324.13 316.29 324.26 317.51 323.94 317.85 324.66 319.23 324.17 318.42 326.22 319.19 326.43 319.4 327.3 321.37 326.12 321.07 327.57 321.44 328.26 322.06 328.65 322.46 329.29 323.69 328.97 323.47 330.33 324 330.81 324.19 331.7 325.48 331.3 325.71 332.15 326.64 332.18 326.49 333.47 326.86 334.15 327.68 334.31 329.4 333.42 328.62 335.45 329.66 335.35 331.06 334.84 330.53 336.57 332.19 335.76 332.23 336.83 333.42 336.56 333.89 337.14 334.02 338.11 334.74 338.88 333.15 338.36 332.77 339.09 332.73 340.34 331.99 340.51 330.77 339.98 331.22 341.97 329.51 340.69 329.7 342.27 329.67 343.54 327.93 342.21 327.6 343 327.17 343.66 327.25 345.08 326.22 344.83 326.11 345.96 324.97 345.54 324.84 346.64 323.61 346.09 322.77 346.11 322.85 347.53 322.33 348.05 320.96 347.29 320.85 348.41 320.4 349.04 319.17 348.48 318.27 348.41 317.74 348.92 316.82 348.81 317.16 350.64 315.94 350.09 315.08 350.09 314.86 351.05 315.26 352.96 314.56 353.2 314.1 353.8 313.11 353.61 312.2 353.54 311.62 353.96 311.07 354.45 310.32 354.62 310.15 355.67 308.59 354.61 308.34 355.54 307.6 355.73 307.19 356.41 306.45 356.6 305.42 356.35 305.48 357.75 304.51 357.58 304.55 358.95 303.08 358.04 303.65 360.2 302.19 359.3 301.38 359.37 300.63 359.54 300.43 360.54 300.1 361.35 299.61 361.9 298.68 361.8 298.04 362.14 297.89 363.21 296.59 362.55 297.28 364.9 295.26 363.15 295.18 364.33 294.16 364.1 293.74 364.77 293.8 366.15 293.78 367.43 291.67 365.56 291.92 367.23 290.5 366.4 290.24 367.31 289.75 367.88 289.8 369.26 288.19 368.13 287.45 368.32 287.59 369.84 286.88 370.07 286.13 370.23 285.37 370.39 285.61 372.05 284.41 371.54 284.43 372.85 284.15 373.73 282.51 372.54 282.36 373.62 282.39 374.96 281.75 375.28 280.08 374.06 279.26 374.12 279.91 376.4 279.06 376.41 278.74 377.21 277.06 375.98 277.57 378.06 276.08 377.1 275.29 377.21 275.17 378.33 275.19 379.68 273.58 378.56 272.72 378.56 273.22 380.63 272.35 380.62 271.99 381.38 271.22 381.52 269.76 380.62 269.01 380.8 269.09 382.22 268.81 383.11 268.5 383.94 266.57 382.33 267.19 384.56 266.2 384.38 265.43 384.52 264.51 384.43 264.74 386.09 263.25 385.15 262.74 385.68 262.25 386.26 261.85 386.97 260.56 386.33 260.95 388.23 259.81 387.82 259.35 388.42 258.25 388.07 258.02 389.03 257.56 389.64 257.24 390.48 255.99 389.9 255.22 390.06 254.71 390.6 254.39 391.43 254.33 392.64 253.44 392.61 253.5 394.02 251.99 393.05 251.83 394.11 250.3 393.12 251.11 395.64 250.05 395.34 249.1 395.21 248.67 395.87 248.27 396.58 247.36 396.53 246.33 396.29 246.04 397.17 245.86 398.21 245.32 398.71 244.02 398.07 243.7 398.9 242.6 398.55 242.29 399.4 241.16 399.02 241.96 401.54 241.08 401.54 240.83 402.48 238.96 401 238.21 401.19"/></svg>